<?xml version="1.0" encoding="utf-8"?>
<!-- Generator: Adobe Illustrator 25.0.0, SVG Export Plug-In . SVG Version: 6.00 Build 0)  -->
<svg version="1.1" id="Ebene_1" xmlns="http://www.w3.org/2000/svg" xmlns:xlink="http://www.w3.org/1999/xlink" x="0px" y="0px"
	 viewBox="0 0 527.4 348.8" style="enable-background:new 0 0 527.4 348.8;" xml:space="preserve">
<style type="text/css">
	.st0{fill:none;stroke:#FF0000;stroke-width:0.2835;stroke-linecap:round;stroke-miterlimit:11.3386;}
	.st1{fill:none;stroke:#0000FF;stroke-width:0.1;stroke-miterlimit:10;}
</style>
<g id="svgGroup">
	<path id="front_outsideCutPath" vector-effect="non-scaling-stroke" class="st0" d="M49.5,348.8v-8.5h71.2v8.5l0,0h49.5l0,0v-49.5
		l0,0h-8.5v-71.2h8.5l0,0v-49.5l0,0h-49.5l0,0v8.5H49.5v-8.5l0,0H0l0,0v49.5l0,0h8.5v71.2H0l0,0v49.5l0,0L49.5,348.8L49.5,348.8z"/>
	<path id="left_outsideCutPath" vector-effect="non-scaling-stroke" class="st0" d="M228.1,348.8v-8.5h71.2v8.5l0,0h40.9l0,0v-49.4
		h8.5l0,0v-71.2l0,0h-8.5v-49.4l0,0h-40.9l0,0v8.5h-71.2v-8.5l0,0h-40.9l0,0v49.4h-8.5l0,0v71.2l0,0h8.5v49.4l0,0L228.1,348.8
		L228.1,348.8z"/>
	<path id="top_outsideCutPath" vector-effect="non-scaling-stroke" class="st0" d="M478,348.8v-8.5h40.9l0,0v-40.9h8.5l0,0v-71.2
		l0,0h-8.5v-40.9l0,0H478v-8.5l0,0h-71.2l0,0v8.5h-40.9l0,0v40.9h-8.5l0,0v71.2l0,0h8.5v40.9l0,0h40.9v8.5l0,0L478,348.8L478,348.8z
		"/>
	<path id="back_outsideCutPath" vector-effect="non-scaling-stroke" class="st0" d="M49.5,170.1v-8.5h71.2v8.5l0,0h49.5l0,0v-49.5
		l0,0h-8.5V49.5h8.5l0,0V0l0,0h-49.5l0,0v8.5H49.5V0l0,0H0l0,0v49.5l0,0h8.5v71.2H0l0,0v49.5l0,0L49.5,170.1L49.5,170.1z"/>
	<path id="right_outsideCutPath" vector-effect="non-scaling-stroke" class="st0" d="M228.1,170.1v-8.5h71.2v8.5l0,0h40.9l0,0v-49.4
		h8.5l0,0V49.4l0,0h-8.5V0l0,0h-40.9l0,0v8.5h-71.2V0l0,0h-40.9l0,0v49.4h-8.5l0,0v71.2l0,0h8.5v49.4l0,0L228.1,170.1L228.1,170.1z"
		/>
	<path id="bottom_outsideCutPath" vector-effect="non-scaling-stroke" class="st0" d="M478,170.1v-8.5h40.9l0,0v-40.9h8.5l0,0V49.4
		l0,0h-8.5V8.5l0,0H478V0l0,0h-71.2l0,0v8.5h-40.9l0,0v40.9h-8.5l0,0v71.2l0,0h8.5v40.9l0,0h40.9v8.5l0,0L478,170.1L478,170.1z"/>
</g>
<g id="innen">
	<rect x="42.5" y="221.2" class="st1" width="85" height="85"/>
	<rect x="21.3" y="21.3" class="st1" width="127.6" height="127.6"/>
	<rect x="42.5" y="42.5" class="st1" width="85" height="85"/>
	<rect x="199.9" y="21.3" class="st1" width="127.6" height="127.6"/>
	<rect x="221.2" y="42.5" class="st1" width="85" height="85"/>
	<rect x="378.6" y="21.3" class="st1" width="127.6" height="127.6"/>
	<rect x="399.8" y="42.5" class="st1" width="85" height="85"/>
	<rect x="378.6" y="199.9" class="st1" width="127.6" height="127.6"/>
	<rect x="399.8" y="221.2" class="st1" width="85" height="85"/>
	<rect x="199.9" y="199.9" class="st1" width="127.6" height="127.6"/>
	<rect x="221.2" y="221.2" class="st1" width="85" height="85"/>
	<rect x="21.3" y="199.9" class="st1" width="127.6" height="127.6"/>
</g>
</svg>
